<?xml version="1.0" encoding="UTF-8"?>
<svg width="20px" height="20px" viewBox="0 0 170 170" version="1.1" xmlns="http://www.w3.org/2000/svg" xmlns:xlink="http://www.w3.org/1999/xlink">
    <g stroke="none" stroke-width="1" fill="none" fill-rule="evenodd">
        <g transform="translate(-150.000000, -115.000000)" fill="#FFFFFF">
            <g transform="translate(150.000000, 115.000000)">
                <path d="M150.37,130.25 C142.53,142.82 139.17,149.23 130.97,162.34 C120.2,179.46 108.3,170 94.2,170 C80.1,170 75.9,179.13 58.8,170 C41.7,160.87 40.35,140.8 40.35,140.8 C40.35,140.8 39.4,100.56 75.5,100.56 C84.8,100.56 99.67,106.28 109.43,106.28 C119.2,106.28 136.3,99.1 150.37,130.25 M94.2,28.9 C104.4,28.9 118.17,19.4 127.6,19.4 C153.8,19.4 165.5,38.5 165.5,38.5 C165.5,38.5 143.33,49.1 143.33,76.5 C143.33,103.9 170,113.4 170,113.4 C170,113.4 153.5,169.5 127.6,169.5 C114.5,169.5 105.83,161.5 94.2,161.5 C82.57,161.5 70.3,169.5 60.5,169.5 C35.9,169.5 10,116.2 10,81.9 C10,47.6 34.6,28.9 53.3,28.9 C72,28.9 84,28.9 94.2,28.9 M125.5,0 C125.5,0 138.6,11.27 138.6,25.7 C138.6,40.13 127.5,51.4 113.4,51.4 C99.3,51.4 84.5,40.13 84.5,25.7 C84.5,11.27 97.6,0 111.7,0 C125.8,0 125.5,0 125.5,0"></path>
            </g>
        </g>
    </g>
</svg>