<?xml version="1.0" encoding="UTF-8"?>
<svg width="40px" height="40px" viewBox="0 0 24 24" version="1.1" xmlns="http://www.w3.org/2000/svg" xmlns:xlink="http://www.w3.org/1999/xlink">
    <g stroke="none" stroke-width="1" fill="none" fill-rule="evenodd">
        <path d="M12,1 L12,1 C18.0751322,1 23,5.92486775 23,12 L23,12 C23,18.0751322 18.0751322,23 12,23 L12,23 C5.92486775,23 1,18.0751322 1,12 L1,12 C1,5.92486775 5.92486775,1 12,1 Z" fill="#4A6CF7"></path>
        <path d="M17,9 C17,7.34314575 15.6568542,6 14,6 L10,6 C8.34314575,6 7,7.34314575 7,9 L7,15 C7,16.6568542 8.34314575,18 10,18 L14,18 C15.6568542,18 17,16.6568542 17,15 L17,9 Z M10,8 L14,8 C14.5522847,8 15,8.44771525 15,9 L15,15 C15,15.5522847 14.5522847,16 14,16 L10,16 C9.44771525,16 9,15.5522847 9,15 L9,9 C9,8.44771525 9.44771525,8 10,8 Z" fill="#FFFFFF" fill-rule="nonzero"></path>
        <rect fill="#FFFFFF" x="11" y="10" width="2" height="4" rx="1"></rect>
    </g>
</svg>