<?xml version="1.0" encoding="UTF-8"?>
<svg width="80px" height="80px" viewBox="0 0 24 24" version="1.1" xmlns="http://www.w3.org/2000/svg" xmlns:xlink="http://www.w3.org/1999/xlink">
    <g stroke="none" stroke-width="1" fill="none" fill-rule="evenodd">
        <path d="M12,2 C17.5228475,2 22,6.4771525 22,12 C22,17.5228475 17.5228475,22 12,22 C6.4771525,22 2,17.5228475 2,12 C2,6.4771525 6.4771525,2 12,2 Z" fill="#34C759"></path>
        <path d="M10.5857864,14.0857864 L16.2928932,8.37867966 C16.6834175,7.98815536 17.3165825,7.98815536 17.7071068,8.37867966 C18.0976311,8.76920396 18.0976311,9.40236893 17.7071068,9.79289322 L11.2928932,16.2071068 C10.9023689,16.5976311 10.269214,16.5976311 9.87868966,16.2071068 L6.29289322,12.6213203 C5.90236893,12.230796 5.90236893,11.597631 6.29289322,11.2071068 C6.68341751,10.8165825 7.31658249,10.8165825 7.70710678,11.2071068 L10.5857864,14.0857864 Z" fill="#FFFFFF" fill-rule="nonzero"></path>
    </g>
</svg>